# xmcd CD database file
#
# Track frame offsets:
#	150
#	21050
#	45863
#
# Disc length: 887 seconds
#
# Revision: 6
# Processed by: cddbd v1.5.2PL0 Copyright (c) Steve Scherf et al.
# Submitted via: CDex 1.70beta2
#
DISCID=14037503
DTITLE=Mr.Children - everybody goes (single)
DYEAR=1994
DGENRE=JPop
TTITLE0=everybody goes
TTITLE1=classmate
TTITLE2=everybody goes (INSTRUMENTAL VERSION)
EXTD=YEAR: 1994
EXTT0=
EXTT1=
EXTT2=
PLAYORDER=
